<svg id="图层_1" data-name="图层 1" xmlns="http://www.w3.org/2000/svg" xmlns:xlink="http://www.w3.org/1999/xlink" viewBox="0 0 283.56 283.56"><defs><style>.cls-1,.cls-2,.cls-3,.cls-6{fill:none;}.cls-1{clip-rule:evenodd;}.cls-2,.cls-3,.cls-4,.cls-5{fill-rule:evenodd;}.cls-3{opacity:0;}.cls-4{fill:#0070c0;}.cls-5{fill:#ffc000;}.cls-6{stroke:#2f5597;stroke-miterlimit:8;stroke-width:4.56px;}.cls-7{clip-path:url(#clip-path);}</style><clipPath id="clip-path"><polygon class="cls-1" points="0 283.56 283.56 283.56 283.56 0 0 0 0 283.56 0 283.56"/></clipPath></defs><title>web_logo</title><polygon class="cls-3" points="0 283.56 283.56 283.56 283.56 0 0 0 0 283.56 0 283.56"/><path class="cls-4" d="M252.71,218.19a134.7,134.7,0,1,1-.88-154.08L226,82.33a103.1,103.1,0,1,0,.68,117.92Z"/><path class="cls-5" d="M70.68,123.06a15,15,0,1,1,15,14.94,15,15,0,0,1-15-14.94Z"/><path class="cls-6" d="M70.68,123.06a15,15,0,1,1,15,14.94,15,15,0,0,1-15-14.94Z"/><path class="cls-5" d="M145.56,197.88a14.94,14.94,0,1,1,14.94,15,15,15,0,0,1-14.94-15Z"/><path class="cls-6" d="M145.56,197.88a14.94,14.94,0,1,1,14.94,15,15,15,0,0,1-14.94-15Z"/><g class="cls-7"><path class="cls-5" d="M70.68,197.88a15,15,0,1,1,15,15,15,15,0,0,1-15-15Z"/><path class="cls-6" d="M70.68,197.88a15,15,0,1,1,15,15,15,15,0,0,1-15-15Z"/><g class="cls-7"><path class="cls-5" d="M145.56,123.06A14.94,14.94,0,1,1,160.5,138a14.94,14.94,0,0,1-14.94-14.94Z"/><path class="cls-6" d="M145.56,123.06A14.94,14.94,0,1,1,160.5,138a14.94,14.94,0,0,1-14.94-14.94Z"/><g class="cls-7"><path class="cls-5" d="M108.12,85.68a14.94,14.94,0,1,1,14.94,15,15,15,0,0,1-14.94-15Z"/><path class="cls-6" d="M108.12,85.68a14.94,14.94,0,1,1,14.94,15,15,15,0,0,1-14.94-15Z"/><g class="cls-7"><path class="cls-5" d="M182.88,160.5a15,15,0,1,1,15,14.94,15,15,0,0,1-15-14.94Z"/><path class="cls-6" d="M182.88,160.5a15,15,0,1,1,15,14.94,15,15,0,0,1-15-14.94Z"/><g class="cls-7"><path class="cls-5" d="M108.12,160.5a14.94,14.94,0,1,1,14.94,14.94,14.94,14.94,0,0,1-14.94-14.94Z"/><path class="cls-6" d="M108.12,160.5a14.94,14.94,0,1,1,14.94,14.94,14.94,14.94,0,0,1-14.94-14.94Z"/><g class="cls-7"><path class="cls-5" d="M182.88,85.68a15,15,0,1,1,15,15,15,15,0,0,1-15-15Z"/><path class="cls-6" d="M182.88,85.68a15,15,0,1,1,15,15,15,15,0,0,1-15-15Z"/><g class="cls-7"><line class="cls-6" x1="171.12" y1="187.36" x2="187.36" y2="171.12"/><g class="cls-7"><line class="cls-6" x1="145.56" y1="197.88" x2="100.68" y2="197.88"/><g class="cls-7"><line class="cls-6" x1="96.24" y1="187.36" x2="112.48" y2="171.12"/><g class="cls-7"><line class="cls-6" x1="85.68" y1="138" x2="85.68" y2="182.88"/><g class="cls-7"><line class="cls-6" x1="100.68" y1="123.12" x2="145.56" y2="123.12"/><g class="cls-7"><line class="cls-6" x1="160.44" y1="138" x2="160.44" y2="182.88"/><g class="cls-7"><line class="cls-6" x1="123.12" y1="100.68" x2="123.12" y2="145.56"/><g class="cls-7"><line class="cls-6" x1="138" y1="85.68" x2="182.88" y2="85.68"/><g class="cls-7"><line class="cls-6" x1="197.88" y1="100.68" x2="197.88" y2="145.56"/><g class="cls-7"><line class="cls-6" x1="138" y1="160.44" x2="182.88" y2="160.44"/><g class="cls-7"><line class="cls-6" x1="187.36" y1="96.24" x2="171.12" y2="112.48"/><g class="cls-7"><line class="cls-6" x1="112.48" y1="96.24" x2="96.24" y2="112.48"/></g></g></g></g></g></g></g></g></g></g></g></g></g></g></g></g></g></g></svg>